# Blender 4.5.10 LTS
# www.blender.org
mtllib Lever.mtl
o Lever
v -0.468493 0.627499 0.336220
v -0.433323 0.729032 0.336220
v -0.377969 0.596142 0.336220
v -0.342798 0.697675 0.336220
v -0.433323 0.729032 -0.282747
v -0.377969 0.596142 -0.282747
v -0.468493 0.627499 -0.282747
v -0.342798 0.697675 -0.282747
v -0.484318 0.618665 0.336220
v -0.481414 0.620286 0.513410
v -0.439013 0.742692 0.513410
v -0.440292 0.745762 -0.282747
v -0.439013 0.742692 -0.471464
v -0.481414 0.620286 -0.471464
v -0.372279 0.582482 -0.471464
v -0.329878 0.704889 -0.471464
v -0.371000 0.579412 -0.282747
v -0.326974 0.706510 0.336220
v -0.329878 0.704889 0.513410
v -0.372279 0.582482 0.513410
v -0.440292 0.745762 0.336220
v -0.371000 0.579412 0.336220
v -0.484318 0.618665 -0.282747
v -0.326974 0.706510 -0.282747
v -0.457962 0.645468 0.229918
v -0.438443 0.700145 0.229918
v -0.121496 0.525355 0.229918
v -0.101977 0.580032 0.229918
v -0.457962 0.645468 0.280566
v -0.438443 0.700145 0.280566
v -0.121496 0.525355 0.280566
v -0.101977 0.580032 0.280566
v -0.457962 0.645468 -0.263149
v -0.438443 0.700145 -0.263149
v -0.121496 0.525355 -0.263149
v -0.101977 0.580032 -0.263149
v -0.457962 0.645468 -0.212501
v -0.438443 0.700145 -0.212501
v -0.121496 0.525355 -0.212501
v -0.101977 0.580032 -0.212501
vn -0.0000 -0.0000 1.0000
vn -0.0000 -0.0000 -1.0000
vn 0.3273 0.9449 -0.0000
vn -0.3273 -0.9449 -0.0000
vn 0.9449 -0.3273 -0.0000
vn -0.9449 0.3273 -0.0000
vn -0.9449 0.3273 -0.0117
vn 0.9448 -0.3273 0.0125
vn -0.3273 -0.9448 0.0140
vn 0.3273 0.9448 0.0140
vn -0.9448 0.3273 0.0125
vn 0.9449 -0.3273 -0.0117
vn -0.3273 -0.9448 -0.0132
vn 0.3273 0.9448 -0.0132
vn 0.9418 -0.3362 -0.0000
vn -0.9418 0.3362 -0.0000
vn -0.3362 -0.9418 -0.0000
vn 0.3362 0.9418 -0.0000
vt 0.375000 0.532054
vt 0.125000 0.532054
vt 0.625000 0.721474
vt 0.875000 0.721474
vt 0.375000 0.217946
vt 0.625000 0.217946
vt 0.375000 0.721474
vt 0.625000 0.532054
vt 0.875000 0.532054
vt 0.125000 0.721474
vt 0.625000 0.028526
vt 0.375000 0.028526
vt 0.625000 0.250000
vt 0.375000 0.250000
vt 0.625000 0.500000
vt 0.375000 0.500000
vt 0.625000 0.750000
vt 0.375000 0.750000
vt 0.625000 1.000000
vt 0.375000 1.000000
vt 0.125000 0.750000
vt 0.875000 0.750000
vt 0.375000 0.000000
vt 0.625000 0.000000
vt 0.125000 0.500000
vt 0.875000 0.500000
s 0
usemtl crowbarmetal
f 6/1/1 7/2/1 23/2/1 17/1/1
f 4/3/2 2/4/2 21/4/2 18/3/2
f 7/5/1 5/6/1 12/6/1 23/5/1
f 3/7/2 4/3/2 18/3/2 22/7/2
f 8/8/3 5/9/3 2/4/3 4/3/3
f 7/2/4 6/1/4 3/7/4 1/10/4
f 6/1/5 8/8/5 4/3/5 3/7/5
f 8/8/1 6/1/1 17/1/1 24/8/1
f 5/9/1 8/8/1 24/8/1 12/9/1
f 1/10/2 3/7/2 22/7/2 9/10/2
f 2/11/2 1/12/2 9/12/2 21/11/2
f 1/12/6 2/11/6 5/6/6 7/5/6
f 23/5/7 12/6/7 13/13/7 14/14/7
f 14/14/2 13/13/2 16/15/2 15/16/2
f 22/7/8 18/3/8 19/17/8 20/18/8
f 20/18/1 19/17/1 11/19/1 10/20/1
f 9/10/9 22/7/9 20/18/9 10/21/9
f 18/3/10 21/4/10 11/22/10 19/17/10
f 10/23/11 11/24/11 21/11/11 9/12/11
f 15/16/12 16/15/12 24/8/12 17/1/12
f 14/25/13 15/16/13 17/1/13 23/2/13
f 16/15/14 13/26/14 12/9/14 24/8/14
f 25/23/2 26/24/2 28/13/2 27/14/2
f 27/14/15 28/13/15 32/15/15 31/16/15
f 31/16/1 32/15/1 30/17/1 29/18/1
f 29/18/16 30/17/16 26/19/16 25/20/16
f 27/25/17 31/16/17 29/18/17 25/21/17
f 32/15/18 28/26/18 26/22/18 30/17/18
f 33/23/2 34/24/2 36/13/2 35/14/2
f 35/14/15 36/13/15 40/15/15 39/16/15
f 39/16/1 40/15/1 38/17/1 37/18/1
f 37/18/16 38/17/16 34/19/16 33/20/16
f 35/25/17 39/16/17 37/18/17 33/21/17
f 40/15/18 36/26/18 34/22/18 38/17/18
