# Blender 4.5.10 LTS
# www.blender.org
mtllib MaquinaExpendedora.mtl
o cube_18
v 0.149538 2.544818 1.025692
v 0.149538 2.544818 0.061923
v 0.149538 0.442048 1.025692
v 0.149538 0.442048 0.061923
v -0.288539 2.544818 0.061923
v -0.288539 2.544818 1.025692
v -0.288539 0.442048 0.061923
v -0.288539 0.442048 1.025692
v 1.113308 1.318202 1.025692
v 1.113308 1.318202 0.324769
v 1.113308 1.230587 1.025692
v 1.113308 1.230586 0.324769
v 0.149538 1.318202 0.324769
v 0.149538 1.318202 1.025692
v 0.149538 1.230586 0.324769
v 0.149538 1.230587 1.025692
v 0.412385 1.318202 0.390481
v 0.412385 1.318202 0.302865
v 0.412385 1.142971 0.390481
v 0.412385 1.142971 0.302865
v 0.237154 1.318202 0.302865
v 0.237154 1.318202 0.390481
v 0.237154 1.142971 0.302865
v 0.237154 1.142971 0.390481
v 1.025692 1.318202 0.390481
v 1.025692 1.318202 0.302865
v 1.025692 1.142971 0.390481
v 1.025692 1.142971 0.302865
v 0.850462 1.318202 0.302865
v 0.850462 1.318202 0.390481
v 0.850462 1.142971 0.302865
v 0.850462 1.142971 0.390481
v 0.719039 1.318202 0.390481
v 0.719039 1.318202 0.302865
v 0.719039 1.142971 0.390481
v 0.719039 1.142971 0.302865
v 0.543808 1.318202 0.302865
v 0.543808 1.318202 0.390481
v 0.543808 1.142971 0.302865
v 0.543808 1.142971 0.390481
v 1.113308 1.756279 1.025692
v 1.113308 1.756279 0.324769
v 1.113308 1.668664 1.025692
v 1.113308 1.668664 0.324769
v 0.149538 1.756279 0.324769
v 0.149538 1.756279 1.025692
v 0.149538 1.668664 0.324769
v 0.149538 1.668664 1.025692
v 0.412385 1.756279 0.390481
v 0.412385 1.756279 0.302865
v 0.412385 1.581048 0.390481
v 0.412385 1.581048 0.302865
v 0.237154 1.756279 0.302865
v 0.237154 1.756279 0.390481
v 0.237154 1.581048 0.302865
v 0.237154 1.581048 0.390481
v 1.025692 1.756279 0.390481
v 1.025692 1.756279 0.302865
v 1.025692 1.581048 0.390481
v 1.025692 1.581048 0.302865
v 0.850462 1.756279 0.302865
v 0.850462 1.756279 0.390481
v 0.850462 1.581048 0.302865
v 0.850462 1.581048 0.390481
v 0.719039 1.756279 0.390481
v 0.719039 1.756279 0.302865
v 0.719039 1.581048 0.390481
v 0.719039 1.581048 0.302865
v 0.543808 1.756279 0.302865
v 0.543808 1.756279 0.390481
v 0.543808 1.581048 0.302865
v 0.543808 1.581048 0.390481
v 1.113308 2.194356 1.025692
v 1.113308 2.194356 0.324769
v 1.113308 2.106740 1.025692
v 1.113308 2.106740 0.324769
v 0.149538 2.194356 0.324769
v 0.149538 2.194356 1.025692
v 0.149538 2.106740 0.324769
v 0.149538 2.106740 1.025692
v 0.412385 2.194356 0.390481
v 0.412385 2.194356 0.302865
v 0.412385 2.019125 0.390481
v 0.412385 2.019125 0.302865
v 0.237154 2.194356 0.302865
v 0.237154 2.194356 0.390481
v 0.237154 2.019125 0.302865
v 0.237154 2.019125 0.390481
v 1.025692 2.194356 0.390481
v 1.025692 2.194356 0.302865
v 1.025692 2.019125 0.390481
v 1.025692 2.019125 0.302865
v 0.850462 2.194356 0.302865
v 0.850462 2.194356 0.390481
v 0.850462 2.019125 0.302865
v 0.850462 2.019125 0.390481
v 0.719039 2.194356 0.390481
v 0.719039 2.194356 0.302865
v 0.719039 2.019125 0.390481
v 0.719039 2.019125 0.302865
v 0.543808 2.194356 0.302865
v 0.543808 2.194356 0.390481
v 0.543808 2.019125 0.302865
v 0.543808 2.019125 0.390481
v 1.113308 0.704894 0.149538
v 1.113308 0.704894 0.061923
v 1.113308 0.442048 0.149538
v 1.113308 0.442048 0.061923
v 0.149538 0.704894 0.061923
v 0.149538 0.704894 0.149538
v 0.149538 0.442048 0.061923
v 0.149538 0.442048 0.149538
v 1.288539 0.442048 1.113308
v 1.288539 0.442048 0.061923
v 1.288539 0.003971 1.113308
v 1.288539 0.003971 0.061923
v -0.288539 0.442048 0.061923
v -0.288539 0.442048 1.113308
v -0.288539 0.003971 0.061923
v -0.288539 0.003971 1.113308
v 1.113308 0.880125 1.025692
v 1.113308 0.880125 0.061923
v 1.113308 0.704894 1.025692
v 1.113308 0.704894 0.061923
v 0.149538 0.880125 0.061923
v 0.149538 0.880125 1.025692
v 0.149538 0.704894 0.061923
v 0.149538 0.704894 1.025692
v 1.113308 2.544818 0.237154
v 1.113308 2.544818 0.149538
v 1.113308 0.880125 0.237154
v 1.113308 0.880125 0.149538
v 0.149538 2.544818 0.149538
v 0.149538 2.544818 0.237154
v 0.149538 0.880125 0.149538
v 0.149538 0.880125 0.237154
v 1.288539 2.807664 1.113308
v 1.288539 2.807664 0.061923
v 1.288539 2.544818 1.113308
v 1.288539 2.544818 0.061923
v -0.288539 2.807664 0.061923
v -0.288539 2.807664 1.113308
v -0.288539 2.544818 0.061923
v -0.288539 2.544818 1.113308
v 1.288539 2.544818 1.113308
v 1.288539 2.544818 0.061923
v 1.288539 0.442048 1.113308
v 1.288539 0.442048 0.061923
v 1.113308 2.544818 0.061923
v 1.113308 2.544818 1.113308
v 1.113308 0.442048 0.061923
v 1.113308 0.442048 1.113308
v 1.113308 2.544818 1.113308
v 1.113308 2.544818 1.025692
v 1.113308 0.442048 1.113308
v 1.113308 0.442048 1.025692
v -0.288539 2.544818 1.025692
v -0.288539 2.544818 1.113308
v -0.288539 0.442048 1.025692
v -0.288539 0.442048 1.113308
v 0.412385 1.493433 0.543808
v 0.412385 1.493433 0.368577
v 0.412385 1.318202 0.543808
v 0.412385 1.318202 0.368577
v 0.237154 1.493433 0.368577
v 0.237154 1.493433 0.543808
v 0.237154 1.318202 0.368577
v 0.237154 1.318202 0.543808
v 0.412385 1.493433 0.850462
v 0.412385 1.493433 0.587615
v 0.412385 1.318202 0.850462
v 0.412385 1.318202 0.587615
v 0.237154 1.493433 0.587615
v 0.237154 1.493433 0.850462
v 0.237154 1.318202 0.587615
v 0.237154 1.318202 0.850462
v 1.025692 1.563837 0.565298
v 1.025692 1.594266 0.392729
v 1.025692 1.304984 0.519655
v 1.025692 1.335413 0.347087
v 0.850462 1.594266 0.392729
v 0.850462 1.563837 0.565298
v 0.850462 1.335413 0.347087
v 0.850462 1.304984 0.519655
v 1.025692 1.556230 0.871286
v 1.025692 1.601873 0.612433
v 1.025692 1.297377 0.825644
v 1.025692 1.343020 0.566791
v 0.850462 1.601873 0.612433
v 0.850462 1.556230 0.871286
v 0.850462 1.343020 0.566791
v 0.850462 1.297377 0.825644
v 0.762846 1.563837 0.565298
v 0.762846 1.594266 0.392729
v 0.762846 1.304984 0.519655
v 0.762846 1.335413 0.347087
v 0.500000 1.594266 0.392729
v 0.500000 1.563837 0.565298
v 0.500000 1.335413 0.347087
v 0.500000 1.304984 0.519655
v 0.762846 1.556230 0.871286
v 0.762846 1.601873 0.612433
v 0.762846 1.297377 0.825644
v 0.762846 1.343020 0.566791
v 0.500000 1.601873 0.612433
v 0.500000 1.556230 0.871286
v 0.500000 1.343020 0.566791
v 0.500000 1.297377 0.825644
v 0.719039 2.439991 0.565298
v 0.719039 2.470420 0.392729
v 0.719039 2.181139 0.519655
v 0.719039 2.211567 0.347086
v 0.543808 2.470420 0.392729
v 0.543808 2.439991 0.565298
v 0.543808 2.211567 0.347086
v 0.543808 2.181139 0.519655
v 0.719039 2.432384 0.871286
v 0.719039 2.478027 0.612433
v 0.719039 2.173531 0.825643
v 0.719039 2.219174 0.566791
v 0.543808 2.478027 0.612433
v 0.543808 2.432384 0.871286
v 0.543808 2.219174 0.566791
v 0.543808 2.173531 0.825643
v 0.456192 2.439991 0.565298
v 0.456192 2.470420 0.392729
v 0.456192 2.181139 0.519655
v 0.456192 2.211567 0.347086
v 0.193346 2.470420 0.392729
v 0.193346 2.439991 0.565298
v 0.193346 2.211567 0.347086
v 0.193346 2.181139 0.519655
v 0.456192 2.432384 0.871286
v 0.456192 2.478027 0.612433
v 0.456192 2.173531 0.825643
v 0.456192 2.219174 0.566791
v 0.193346 2.478027 0.612433
v 0.193346 2.432384 0.871286
v 0.193346 2.219174 0.566791
v 0.193346 2.173531 0.825643
v 0.719039 1.931510 0.543808
v 0.719039 1.931510 0.368577
v 0.719039 1.756279 0.543808
v 0.719039 1.756279 0.368577
v 0.543808 1.931510 0.368577
v 0.543808 1.931510 0.543808
v 0.543808 1.756279 0.368577
v 0.543808 1.756279 0.543808
v 0.719039 1.931510 0.850462
v 0.719039 1.931510 0.587615
v 0.719039 1.756279 0.850462
v 0.719039 1.756279 0.587615
v 0.543808 1.931510 0.587615
v 0.543808 1.931510 0.850462
v 0.543808 1.756279 0.587615
v 0.543808 1.756279 0.850462
v 1.025692 2.001915 0.565298
v 1.025692 2.032343 0.392729
v 1.025692 1.743061 0.519655
v 1.025692 1.773490 0.347086
v 0.850462 2.032343 0.392729
v 0.850462 2.001915 0.565298
v 0.850462 1.773490 0.347086
v 0.850462 1.743061 0.519655
v 1.025692 1.994307 0.871286
v 1.025692 2.039950 0.612433
v 1.025692 1.735454 0.825644
v 1.025692 1.781097 0.566791
v 0.850462 2.039950 0.612433
v 0.850462 1.994307 0.871286
v 0.850462 1.781097 0.566791
v 0.850462 1.735454 0.825644
v 0.456192 2.001915 0.565298
v 0.456192 2.032343 0.392729
v 0.456192 1.743061 0.519655
v 0.456192 1.773490 0.347086
v 0.193346 2.032343 0.392729
v 0.193346 2.001915 0.565298
v 0.193346 1.773490 0.347086
v 0.193346 1.743061 0.519655
v 0.456192 1.994307 0.871286
v 0.456192 2.039950 0.612433
v 0.456192 1.735454 0.825644
v 0.456192 1.781097 0.566791
v 0.193346 2.039950 0.612433
v 0.193346 1.994307 0.871286
v 0.193346 1.781097 0.566791
v 0.193346 1.735454 0.825644
v 1.069500 2.439991 0.565298
v 1.069500 2.470420 0.392729
v 1.069500 2.181139 0.519655
v 1.069500 2.211567 0.347086
v 0.806654 2.470420 0.392729
v 0.806654 2.439991 0.565298
v 0.806654 2.211567 0.347086
v 0.806654 2.181139 0.519655
v 1.069500 2.432384 0.871286
v 1.069500 2.478027 0.612433
v 1.069500 2.173531 0.825643
v 1.069500 2.219174 0.566791
v 0.806654 2.478027 0.612433
v 0.806654 2.432384 0.871286
v 0.806654 2.219174 0.566791
v 0.806654 2.173531 0.825643
vn -0.0000 -0.0000 -1.0000
vn 1.0000 -0.0000 -0.0000
vn -0.0000 -0.0000 1.0000
vn -1.0000 -0.0000 -0.0000
vn -0.0000 1.0000 -0.0000
vn -0.0000 -1.0000 -0.0000
vn -0.0000 0.1736 -0.9848
vn -0.0000 -0.1736 0.9848
vn -0.0000 0.9848 0.1737
vn -0.0000 -0.9848 -0.1737
vn -0.0000 0.9848 0.1736
vn -0.0000 -0.9848 -0.1736
vt 0.343750 0.437500
vt 0.382812 0.437500
vt 0.382812 0.625000
vt 0.343750 0.625000
vt 0.187500 0.625000
vt 0.273438 0.625000
vt 0.273438 0.812500
vt 0.187500 0.812500
vt 0.421875 0.437500
vt 0.421875 0.625000
vt 0.250000 0.812500
vt 0.335938 0.812500
vt 0.335938 1.000000
vt 0.250000 1.000000
vt 0.210938 0.539062
vt 0.171875 0.539062
vt 0.171875 0.453125
vt 0.210938 0.453125
vt 0.250000 0.453125
vt 0.250000 0.539062
vt 0.500000 0.710938
vt 0.585938 0.710938
vt 0.585938 0.718750
vt 0.500000 0.718750
vt 0.500000 0.679688
vt 0.562500 0.679688
vt 0.562500 0.687500
vt 0.500000 0.687500
vt 0.500000 0.703125
vt 0.585938 0.703125
vt 0.500000 0.671875
vt 0.562500 0.671875
vt 0.500000 0.734375
vt 0.414062 0.734375
vt 0.414062 0.671875
vt 0.507812 0.609375
vt 0.421875 0.609375
vt 0.421875 0.671875
vt 0.507812 0.671875
vt 0.421875 0.484375
vt 0.437500 0.484375
vt 0.437500 0.500000
vt 0.421875 0.500000
vt 0.507812 0.656250
vt 0.515625 0.656250
vt 0.515625 0.671875
vt 0.453125 0.484375
vt 0.453125 0.500000
vt 0.507812 0.640625
vt 0.515625 0.640625
vt 0.523438 0.640625
vt 0.507812 0.632812
vt 0.523438 0.632812
vt 0.523438 0.625000
vt 0.507812 0.625000
vt 0.468750 0.484375
vt 0.468750 0.500000
vt 0.515625 0.609375
vt 0.515625 0.625000
vt 0.484375 0.484375
vt 0.484375 0.500000
vt 0.523438 0.656250
vt 0.523438 0.671875
vt 0.531250 0.656250
vt 0.515625 0.648438
vt 0.531250 0.648438
vt 0.531250 0.640625
vt 0.500000 0.484375
vt 0.500000 0.500000
vt 0.523438 0.609375
vt 0.515625 0.484375
vt 0.515625 0.500000
vt 0.515625 0.593750
vt 0.523438 0.593750
vt 0.531250 0.593750
vt 0.515625 0.585938
vt 0.531250 0.585938
vt 0.531250 0.578125
vt 0.515625 0.578125
vt 0.476562 0.906250
vt 0.562500 0.906250
vt 0.562500 0.929688
vt 0.476562 0.929688
vt 0.414062 0.648438
vt 0.421875 0.648438
vt 0.476562 0.882812
vt 0.562500 0.882812
vt 0.414062 0.625000
vt 0.500000 0.695312
vt 0.585938 0.695312
vt 0.585938 0.687500
vt 0.414062 0.773438
vt 0.554688 0.773438
vt 0.554688 0.812500
vt 0.414062 0.812500
vt 0.421875 0.570312
vt 0.515625 0.570312
vt 0.554688 0.734375
vt 0.421875 0.531250
vt 0.515625 0.531250
vt 0.273438 0.718750
vt 0.414062 0.718750
vt 0.476562 0.867188
vt 0.562500 0.867188
vt 0.476562 0.851562
vt 0.562500 0.851562
vt 0.476562 0.835938
vt 0.562500 0.835938
vt 0.476562 0.820312
vt 0.562500 0.820312
vt 0.257812 0.625000
vt 0.171875 0.625000
vt 0.257812 0.539062
vt 0.343750 0.539062
vt 0.000000 0.476562
vt 0.085938 0.476562
vt 0.085938 0.625000
vt 0.000000 0.625000
vt 0.328125 0.390625
vt 0.335938 0.390625
vt 0.335938 0.539062
vt 0.328125 0.539062
vt 0.000000 0.328125
vt 0.085938 0.328125
vt 0.343750 0.390625
vt 0.585938 0.734375
vt 0.500000 0.726562
vt 0.585938 0.726562
vt 0.421875 0.507812
vt 0.562500 0.507812
vt 0.562500 0.531250
vt 0.476562 0.953125
vt 0.570312 0.953125
vt 0.570312 0.976562
vt 0.476562 0.976562
vt 0.617188 0.976562
vt 0.617188 1.000000
vt 0.476562 1.000000
vt 0.570312 0.929688
vt 0.335938 0.906250
vt 0.476562 0.812500
vt 0.250000 0.351562
vt 0.265625 0.351562
vt 0.265625 0.539062
vt 0.093750 0.625000
vt 0.093750 0.812500
vt 0.000000 0.812500
vt 0.281250 0.351562
vt 0.281250 0.539062
vt 0.296875 0.539062
vt 0.281250 0.445312
vt 0.296875 0.445312
vt 0.312500 0.445312
vt 0.312500 0.539062
vt 0.125000 0.812500
vt 0.125000 1.000000
vt 0.000000 1.000000
vt 0.312500 0.351562
vt 0.320312 0.351562
vt 0.320312 0.539062
vt 0.328125 0.351562
vt 0.601562 0.820312
vt 0.601562 0.812500
vt 0.546875 0.500000
vt 0.546875 0.507812
vt 0.312500 0.375000
vt 0.375000 0.375000
vt 0.375000 0.437500
vt 0.312500 0.437500
vt 0.562500 0.625000
vt 0.625000 0.625000
vt 0.625000 0.687500
vt 0.562500 0.562500
vt 0.625000 0.562500
vt 0.468750 0.375000
vt 0.531250 0.375000
vt 0.531250 0.437500
vt 0.468750 0.437500
vt 0.593750 0.437500
vt 0.593750 0.375000
vt 0.656250 0.937500
vt 0.593750 0.937500
vt 0.593750 1.000000
vt 0.656250 1.000000
vt 0.593750 0.875000
vt 0.656250 0.875000
vt 0.187500 0.562500
vt 0.281250 0.562500
vt 0.281250 0.625000
vt 0.593750 0.812500
vt 0.656250 0.812500
vt 0.375000 0.750000
vt 0.468750 0.750000
vt 0.468750 0.812500
vt 0.375000 0.812500
vt 0.437500 0.750000
vt 0.375000 0.656250
vt 0.437500 0.656250
vt 0.343750 0.531250
vt 0.281250 0.531250
vt 0.406250 0.531250
vt 0.406250 0.625000
vt 0.406250 0.562500
vt 0.468750 0.562500
vt 0.468750 0.656250
vt 0.406250 0.656250
vt 0.187500 0.468750
vt 0.250000 0.468750
vt 0.250000 0.562500
vt 0.500000 0.656250
vt 0.500000 0.750000
vt 0.656250 0.562500
vt 0.593750 0.562500
vt 0.593750 0.500000
vt 0.656250 0.500000
vt 0.656250 0.437500
vt 0.406250 0.468750
vt 0.468750 0.468750
vt 0.000000 0.906250
vt 0.093750 0.906250
vt 0.093750 1.000000
vt 0.000000 0.437500
vt 0.062500 0.437500
vt 0.062500 0.531250
vt 0.000000 0.531250
vt 0.531250 1.000000
vt 0.468750 1.000000
vt 0.468750 0.906250
vt 0.531250 0.906250
vt 0.125000 0.437500
vt 0.125000 0.531250
vt 0.187500 0.906250
vt 0.187500 1.000000
vt 0.531250 0.812500
vt 0.187500 0.437500
vt 0.187500 0.531250
vt 0.562500 0.812500
vt 0.562500 0.750000
vt 0.343750 0.468750
vt 0.250000 0.531250
vt 0.000000 0.718750
vt 0.093750 0.718750
vt 0.281250 0.906250
vt 0.281250 1.000000
vt 0.187500 0.718750
vt 0.281250 0.812500
vt 0.281250 0.718750
vt 0.656250 0.375000
vt 0.187500 0.312500
vt 0.250000 0.312500
vt 0.250000 0.375000
vt 0.187500 0.375000
vt 0.312500 0.312500
vt 0.375000 0.312500
vt 0.687500 0.687500
vt 0.687500 0.625000
vt 0.437500 0.312500
vt 0.437500 0.375000
vt 0.687500 0.562500
vt 0.468750 0.593750
vt 0.562500 0.593750
vt 0.562500 0.656250
vt 0.500000 0.312500
vt 0.500000 0.375000
vt 0.468750 0.531250
vt 0.406250 0.437500
vt 0.531250 0.531250
vt 0.593750 0.906250
vt 0.562500 0.375000
vt 0.562500 0.312500
vt 0.625000 0.312500
vt 0.625000 0.375000
vt 0.312500 0.468750
vt 0.375000 0.906250
vt 0.375000 1.000000
vt 0.406250 0.375000
vt 0.593750 0.531250
vt 0.062500 0.343750
vt 0.000000 0.343750
vt 0.125000 0.343750
vt 0.187500 0.343750
vt 0.656250 0.750000
vt 0.656250 0.687500
vt 0.375000 0.718750
vt 0.375000 0.625000
vt 0.093750 0.531250
s 1
usemtl texturesnackmachineorange.png
f 4/1/1 7/2/1 5/3/1 2/4/1
f 3/5/2 4/6/2 2/7/2 1/8/2
f 8/2/3 3/9/3 1/10/3 6/3/3
f 7/11/4 8/12/4 6/13/4 5/14/4
f 6/15/5 1/16/5 2/17/5 5/18/5
f 7/19/6 4/18/6 3/15/6 8/20/6
f 12/21/1 15/22/1 13/23/1 10/24/1
f 11/25/2 12/26/2 10/27/2 9/28/2
f 16/29/3 11/30/3 9/22/3 14/21/3
f 15/31/4 16/32/4 14/26/4 13/25/4
f 14/33/5 9/34/5 10/35/5 13/31/5
f 15/36/6 12/37/6 11/38/6 16/39/6
f 20/40/1 23/41/1 21/42/1 18/43/1
f 19/44/2 20/45/2 18/46/2 17/39/2
f 24/41/3 19/47/3 17/48/3 22/42/3
f 23/49/4 24/50/4 22/45/4 21/44/4
f 22/51/5 17/49/5 18/52/5 21/53/5
f 23/54/6 20/55/6 19/52/6 24/53/6
f 28/47/1 31/56/1 29/57/1 26/48/1
f 27/36/2 28/58/2 26/59/2 25/55/2
f 32/56/3 27/60/3 25/61/3 30/57/3
f 31/45/4 32/62/4 30/63/4 29/46/4
f 30/64/5 25/45/5 26/65/5 29/66/5
f 31/67/6 28/50/6 27/65/6 32/66/6
f 36/60/1 39/68/1 37/69/1 34/61/1
f 35/58/2 36/70/2 34/54/2 33/59/2
f 40/68/3 35/71/3 33/72/3 38/69/3
f 39/73/4 40/74/4 38/70/4 37/58/4
f 38/75/5 33/73/5 34/76/5 37/77/5
f 39/78/6 36/79/6 35/76/6 40/77/6
f 44/21/1 47/22/1 45/23/1 42/24/1
f 43/25/2 44/26/2 42/27/2 41/28/2
f 48/29/3 43/30/3 41/22/3 46/21/3
f 47/31/4 48/32/4 46/26/4 45/25/4
f 46/33/5 41/34/5 42/35/5 45/31/5
f 47/36/6 44/37/6 43/38/6 48/39/6
f 52/40/1 55/41/1 53/42/1 50/43/1
f 51/44/2 52/45/2 50/46/2 49/39/2
f 56/41/3 51/47/3 49/48/3 54/42/3
f 55/49/4 56/50/4 54/45/4 53/44/4
f 54/51/5 49/49/5 50/52/5 53/53/5
f 55/54/6 52/55/6 51/52/6 56/53/6
f 60/47/1 63/56/1 61/57/1 58/48/1
f 59/36/2 60/58/2 58/59/2 57/55/2
f 64/56/3 59/60/3 57/61/3 62/57/3
f 63/45/4 64/62/4 62/63/4 61/46/4
f 62/64/5 57/45/5 58/65/5 61/66/5
f 63/67/6 60/50/6 59/65/6 64/66/6
f 68/60/1 71/68/1 69/69/1 66/61/1
f 67/58/2 68/70/2 66/54/2 65/59/2
f 72/68/3 67/71/3 65/72/3 70/69/3
f 71/73/4 72/74/4 70/70/4 69/58/4
f 70/75/5 65/73/5 66/76/5 69/77/5
f 71/78/6 68/79/6 67/76/6 72/77/6
f 76/21/1 79/22/1 77/23/1 74/24/1
f 75/25/2 76/26/2 74/27/2 73/28/2
f 80/29/3 75/30/3 73/22/3 78/21/3
f 79/31/4 80/32/4 78/26/4 77/25/4
f 78/33/5 73/34/5 74/35/5 77/31/5
f 79/36/6 76/37/6 75/38/6 80/39/6
f 84/40/1 87/41/1 85/42/1 82/43/1
f 83/44/2 84/45/2 82/46/2 81/39/2
f 88/41/3 83/47/3 81/48/3 86/42/3
f 87/49/4 88/50/4 86/45/4 85/44/4
f 86/51/5 81/49/5 82/52/5 85/53/5
f 87/54/6 84/55/6 83/52/6 88/53/6
f 92/47/1 95/56/1 93/57/1 90/48/1
f 91/36/2 92/58/2 90/59/2 89/55/2
f 96/56/3 91/60/3 89/61/3 94/57/3
f 95/45/4 96/62/4 94/63/4 93/46/4
f 94/64/5 89/45/5 90/65/5 93/66/5
f 95/67/6 92/50/6 91/65/6 96/66/6
f 100/60/1 103/68/1 101/69/1 98/61/1
f 99/58/2 100/70/2 98/54/2 97/59/2
f 104/68/3 99/71/3 97/72/3 102/69/3
f 103/73/4 104/74/4 102/70/4 101/58/4
f 102/75/5 97/73/5 98/76/5 101/77/5
f 103/78/6 100/79/6 99/76/6 104/77/6
f 108/80/1 111/81/1 109/82/1 106/83/1
f 107/84/2 108/85/2 106/38/2 105/35/2
f 112/86/3 107/87/3 105/81/3 110/80/3
f 111/88/4 112/10/4 110/85/4 109/84/4
f 110/30/5 105/29/5 106/89/5 109/90/5
f 111/91/6 108/28/6 107/89/6 112/90/6
f 116/92/1 119/93/1 117/94/1 114/95/1
f 115/96/2 116/97/2 114/58/2 113/37/2
f 120/34/3 115/98/3 113/93/3 118/92/3
f 119/99/4 120/100/4 118/97/4 117/96/4
f 118/95/5 113/7/5 114/101/5 117/102/5
f 119/88/6 116/6/6 115/101/6 120/102/6
f 124/103/1 127/104/1 125/87/1 122/86/1
f 123/105/2 124/106/2 122/104/2 121/103/2
f 128/107/3 123/108/3 121/106/3 126/105/3
f 127/109/4 128/110/4 126/108/4 125/107/4
f 126/111/5 121/112/5 122/16/5 125/113/5
f 127/114/6 124/113/6 123/111/6 128/4/6
f 132/115/1 135/116/1 133/117/1 130/118/1
f 131/119/2 132/120/2 130/121/2 129/122/2
f 136/123/3 131/124/3 129/116/3 134/115/3
f 135/120/4 136/125/4 134/114/4 133/121/4
f 134/126/5 129/33/5 130/127/5 133/128/5
f 135/23/6 132/24/6 131/127/6 136/128/6
f 140/129/1 143/130/1 141/131/1 138/99/1
f 139/132/2 140/133/2 138/134/2 137/135/2
f 144/135/3 139/136/3 137/137/3 142/138/3
f 143/83/4 144/139/4 142/133/4 141/132/4
f 142/138/5 137/13/5 138/140/5 141/80/5
f 143/141/6 140/12/6 139/140/6 144/80/6
f 148/142/1 151/143/1 149/144/1 146/20/1
f 147/118/2 148/145/2 146/146/2 145/147/2
f 152/143/3 147/148/3 145/149/3 150/144/3
f 151/145/4 152/5/4 150/8/4 149/146/4
f 150/150/5 145/149/5 146/151/5 149/152/5
f 151/153/6 148/152/6 147/150/6 152/154/6
f 156/147/1 159/155/1 157/156/1 154/157/1
f 155/158/2 156/159/2 154/160/2 153/154/2
f 160/155/3 155/11/3 153/14/3 158/156/3
f 159/159/4 160/161/4 158/122/4 157/160/4
f 158/162/5 153/109/5 154/141/5 157/163/5
f 159/164/6 156/43/6 155/129/6 160/165/6
f 164/166/1 167/167/1 165/168/1 162/169/1
f 163/170/2 164/171/2 162/172/2 161/27/2
f 168/173/3 163/174/3 161/171/3 166/170/3
f 167/175/4 168/176/4 166/177/4 165/178/4
f 166/179/5 161/177/5 162/176/5 165/180/5
f 167/181/6 164/182/6 163/183/6 168/184/6
f 172/185/1 175/186/1 173/181/1 170/182/1
f 171/187/2 172/188/2 170/189/2 169/5/2
f 176/190/3 171/191/3 169/186/3 174/185/3
f 175/192/4 176/193/4 174/194/4 173/195/4
f 174/196/5 169/192/5 170/197/5 173/198/5
f 175/199/6 172/200/6 171/189/6 176/4/6
f 180/199/7 183/201/7 181/202/7 178/4/7
f 179/203/2 180/204/2 178/205/2 177/206/2
f 184/207/8 179/208/8 177/209/8 182/187/8
f 183/198/4 184/210/4 182/211/4 181/196/4
f 182/212/9 177/213/9 178/214/9 181/215/9
f 183/216/10 180/179/10 179/214/10 184/215/10
f 188/217/7 191/218/7 189/204/7 186/203/7
f 187/219/2 188/220/2 186/221/2 185/157/2
f 192/222/8 187/223/8 185/224/8 190/225/8
f 191/147/4 192/146/4 190/220/4 189/219/4
f 190/226/11 185/227/11 186/228/11 189/229/11
f 191/230/12 188/223/12 187/224/12 192/231/12
f 196/220/7 199/232/7 197/233/7 194/221/7
f 195/194/2 196/234/2 194/229/2 193/228/2
f 200/146/8 195/8/8 193/232/8 198/220/8
f 199/230/4 200/235/4 198/236/4 197/231/4
f 198/237/9 193/194/9 194/193/9 197/238/9
f 199/239/10 196/208/10 195/240/10 200/199/10
f 204/241/7 207/242/7 205/146/7 202/147/7
f 203/232/2 204/243/2 202/244/2 201/233/2
f 208/242/8 203/245/8 201/8/8 206/146/8
f 207/8/4 208/246/4 206/243/4 205/232/4
f 206/246/11 201/8/11 202/245/11 205/247/11
f 207/145/12 204/118/12 203/241/12 208/242/12
f 212/199/7 215/201/7 213/202/7 210/4/7
f 211/203/2 212/204/2 210/205/2 209/206/2
f 216/207/8 211/208/8 209/209/8 214/187/8
f 215/198/4 216/210/4 214/211/4 213/196/4
f 214/214/11 209/215/11 210/212/11 213/213/11
f 215/179/12 212/216/12 211/215/12 216/214/12
f 220/217/7 223/218/7 221/204/7 218/203/7
f 219/219/2 220/220/2 218/221/2 217/157/2
f 224/222/8 219/223/8 217/224/8 222/225/8
f 223/147/4 224/146/4 222/220/4 221/219/4
f 222/228/11 217/229/11 218/226/11 221/227/11
f 223/223/12 220/230/12 219/231/12 224/224/12
f 228/220/7 231/232/7 229/233/7 226/221/7
f 227/194/2 228/234/2 226/229/2 225/228/2
f 232/146/8 227/8/8 225/232/8 230/220/8
f 231/230/4 232/235/4 230/236/4 229/231/4
f 230/193/11 225/238/11 226/237/11 229/194/11
f 231/208/12 228/239/12 227/199/12 232/240/12
f 236/241/7 239/242/7 237/146/7 234/147/7
f 235/232/2 236/243/2 234/244/2 233/233/2
f 240/242/8 235/245/8 233/8/8 238/146/8
f 239/8/4 240/246/4 238/243/4 237/232/4
f 238/245/11 233/247/11 234/246/11 237/8/11
f 239/118/12 236/145/12 235/242/12 240/241/12
f 244/180/1 247/248/1 245/216/1 242/179/1
f 243/249/2 244/250/2 242/251/2 241/252/2
f 248/250/3 243/253/3 241/166/3 246/251/3
f 247/253/4 248/254/4 246/167/4 245/166/4
f 246/255/5 241/172/5 242/171/5 245/256/5
f 247/257/6 244/254/6 243/167/6 248/258/6
f 252/174/1 255/259/1 253/256/1 250/171/1
f 251/260/2 252/261/2 250/262/2 249/205/2
f 256/257/3 251/263/3 249/264/3 254/258/3
f 255/265/4 256/131/4 254/261/4 253/260/4
f 254/201/5 249/199/5 250/1/5 253/266/5
f 255/177/6 252/178/6 251/265/6 256/267/6
f 260/210/7 263/262/7 261/238/7 258/211/7
f 259/229/2 260/268/2 258/183/2 257/226/2
f 264/234/8 259/190/8 257/268/8 262/229/8
f 263/252/4 264/251/4 262/208/4 261/207/4
f 262/269/11 257/264/11 258/263/11 261/270/11
f 263/271/12 260/270/12 259/269/12 264/272/12
f 268/251/7 271/166/7 269/273/7 266/208/7
f 267/243/2 268/274/2 266/275/2 265/244/2
f 272/276/8 267/175/8 265/218/8 270/217/8
f 271/145/4 272/5/4 270/245/4 269/242/4
f 270/277/11 265/267/11 266/177/11 269/179/11
f 271/278/12 268/279/12 267/222/12 272/223/12
f 276/246/7 279/195/7 277/274/7 274/243/7
f 275/278/2 276/280/2 274/230/2 273/223/2
f 280/5/8 275/189/8 273/247/8 278/245/8
f 279/280/4 280/281/4 278/235/4 277/230/4
f 278/191/11 273/237/11 274/238/11 277/282/11
f 279/283/10 276/27/10 275/238/10 280/282/10
f 284/247/7 287/284/7 285/195/7 282/246/7
f 283/189/2 284/285/2 282/284/2 281/247/2
f 288/225/8 283/286/8 281/145/8 286/118/8
f 287/274/4 288/228/4 286/227/4 285/275/4
f 286/5/11 281/145/11 282/286/11 285/236/11
f 287/194/12 284/195/12 283/274/12 288/228/12
f 292/246/7 295/195/7 293/274/7 290/243/7
f 291/278/2 292/280/2 290/230/2 289/223/2
f 296/5/8 291/189/8 289/247/8 294/245/8
f 295/280/4 296/281/4 294/235/4 293/230/4
f 294/238/11 289/282/11 290/191/11 293/237/11
f 295/27/12 292/283/12 291/282/12 296/238/12
f 300/247/7 303/284/7 301/195/7 298/246/7
f 299/189/2 300/285/2 298/284/2 297/247/2
f 304/225/8 299/286/8 297/145/8 302/118/8
f 303/274/4 304/228/4 302/227/4 301/275/4
f 302/286/11 297/236/11 298/5/11 301/145/11
f 303/195/12 300/194/12 299/228/12 304/274/12
